<?xml version="1.0" encoding="UTF-8"?>
<svg xmlns="http://www.w3.org/2000/svg" xmlns:xlink="http://www.w3.org/1999/xlink" width="128pt" height="128pt" viewBox="0 0 128 128" version="1.1">
<g id="surface1">
<path style=" stroke:none;fill-rule:nonzero;fill:rgb(0%,0%,0%);fill-opacity:1;" d="M 44.730469 33.875 C 40.296875 38.390625 37.851562 44.410156 37.851562 50.828125 L 37.851562 78.894531 L 27.296875 89.453125 C 26.496094 90.25 26.496094 91.542969 27.296875 92.339844 C 27.695312 92.738281 28.21875 92.9375 28.738281 92.9375 C 29.261719 92.9375 29.785156 92.738281 30.183594 92.339844 L 38.566406 83.957031 C 40.316406 88.992188 45.105469 92.617188 50.730469 92.617188 C 57.828125 92.617188 63.605469 86.839844 63.605469 79.742188 L 63.605469 50.492188 C 63.605469 49.363281 62.691406 48.449219 61.5625 48.449219 C 60.4375 48.449219 59.519531 49.363281 59.519531 50.492188 L 59.519531 79.742188 C 59.519531 84.589844 55.578125 88.53125 50.730469 88.53125 C 45.882812 88.53125 41.9375 84.589844 41.9375 79.742188 C 41.9375 79.742188 41.9375 79.738281 41.9375 79.738281 L 41.9375 50.828125 C 41.9375 39.847656 50.742188 30.917969 61.5625 30.917969 C 72.386719 30.917969 81.191406 39.851562 81.191406 50.832031 C 81.191406 51.960938 82.105469 52.875 83.230469 52.875 L 97.183594 52.875 C 97.199219 54.78125 97.21875 57.859375 97.21875 61.296875 C 97.21875 65.949219 93.441406 69.730469 88.800781 69.730469 L 83.53125 69.730469 C 82.402344 69.730469 81.488281 70.644531 81.488281 71.773438 L 81.488281 117.789062 C 81.488281 118.914062 82.402344 119.828125 83.53125 119.828125 C 84.660156 119.828125 85.574219 118.914062 85.574219 117.789062 L 85.574219 73.816406 L 88.800781 73.816406 C 95.695312 73.816406 101.304688 68.199219 101.304688 61.296875 C 101.304688 55.578125 101.253906 50.855469 101.25 50.808594 C 101.238281 49.691406 100.328125 48.789062 99.210938 48.789062 L 85.191406 48.789062 C 84.730469 43.144531 82.359375 37.910156 78.398438 33.878906 C 73.9375 29.335938 67.960938 26.832031 61.5625 26.832031 C 55.167969 26.832031 49.191406 29.332031 44.730469 33.875 Z M 44.730469 33.875 "/>
<path style=" stroke:none;fill-rule:nonzero;fill:rgb(0%,0%,0%);fill-opacity:1;" d="M 125.210938 29.480469 L 93.464844 14.074219 L 93.464844 2.042969 C 93.464844 0.914062 92.550781 0 91.421875 0 C 90.292969 0 89.378906 0.914062 89.378906 2.042969 L 89.378906 12.089844 L 64.890625 0.203125 C 64.328125 -0.0664062 63.671875 -0.0664062 63.109375 0.203125 L 2.789062 29.480469 C 1.777344 29.972656 1.351562 31.195312 1.84375 32.210938 C 2.335938 33.226562 3.558594 33.648438 4.574219 33.15625 L 7.113281 31.925781 L 7.113281 125.957031 C 7.113281 127.085938 8.027344 128 9.15625 128 L 118.84375 128 C 119.972656 128 120.886719 127.085938 120.886719 125.957031 L 120.886719 31.925781 L 123.425781 33.15625 C 123.710938 33.296875 124.015625 33.363281 124.316406 33.363281 C 125.074219 33.363281 125.800781 32.9375 126.15625 32.210938 C 126.648438 31.195312 126.222656 29.972656 125.210938 29.480469 Z M 116.800781 123.914062 L 11.199219 123.914062 L 11.199219 29.941406 L 64 4.3125 L 116.800781 29.941406 Z M 116.800781 123.914062 "/>
</g>
</svg>
