<?xml version="1.0" standalone="no"?>
<!DOCTYPE svg PUBLIC "-//W3C//DTD SVG 20010904//EN"
 "http://www.w3.org/TR/2001/REC-SVG-20010904/DTD/svg10.dtd">
<svg version="1.0" xmlns="http://www.w3.org/2000/svg"
 width="171.000000pt" height="171.000000pt" viewBox="0 0 171.000000 171.000000"
 preserveAspectRatio="xMidYMid meet">
<metadata>
Created by potrace 1.16, written by Peter Selinger 2001-2019
</metadata>
<g transform="translate(0.000000,171.000000) scale(0.100000,-0.100000)"
fill="#000000" stroke="none">
<path d="M0 855 l0 -855 51 0 c43 0 50 3 45 16 -3 9 -6 297 -6 640 0 614 0
625 -19 614 -25 -13 -51 -3 -51 21 0 15 62 49 283 156 155 76 338 166 407 200
l125 62 -417 0 -418 1 0 -855z"/>
<path d="M881 1706 c2 -2 72 -38 156 -80 l151 -75 4 79 3 80 -159 0 c-88 0
-157 -2 -155 -4z"/>
<path d="M1248 1616 l3 -94 220 -106 c120 -58 219 -112 219 -118 -1 -31 -18
-42 -44 -30 l-26 12 0 -624 c0 -344 -3 -631 -6 -640 -5 -13 2 -16 45 -16 l51
0 0 855 0 855 -232 0 -233 0 3 -94z"/>
<path d="M498 1477 l-348 -171 0 -623 0 -623 705 0 705 0 0 623 0 623 -352
172 c-194 95 -355 172 -358 171 -3 0 -161 -78 -352 -172z m463 -156 c88 -45
145 -118 170 -214 l11 -46 102 -3 101 -3 3 -111 c2 -101 1 -113 -20 -145 -28
-41 -99 -79 -150 -79 l-38 0 -2 -302 c-3 -295 -3 -303 -23 -303 -20 0 -20 7
-20 330 l0 330 67 5 c60 4 72 9 100 37 30 30 33 39 36 108 l4 74 -102 3 c-115
3 -115 3 -125 80 -8 63 -57 135 -119 172 -100 62 -242 42 -322 -46 -65 -72
-68 -88 -72 -336 -2 -123 -1 -234 2 -247 17 -68 95 -110 157 -85 60 25 63 41
69 290 l5 225 25 0 25 0 3 -210 c2 -116 0 -225 -3 -243 -7 -40 -59 -101 -102
-118 -71 -30 -164 -2 -205 60 -13 20 -25 36 -28 36 -3 0 -30 -25 -60 -55 -58
-59 -90 -70 -90 -32 0 15 24 47 70 92 l70 69 0 186 c0 271 16 334 105 423 64
65 128 88 231 84 60 -2 92 -9 125 -26z"/>
</g>
</svg>
